<?xml version="1.0" standalone="no"?><svg xmlns="http://www.w3.org/2000/svg" viewBox="0 0 1440 320"><path fill="#273036" fill-opacity="1" d="M0,64L17.1,80C34.3,96,69,128,103,160C137.1,192,171,224,206,213.3C240,203,274,149,309,133.3C342.9,117,377,139,411,170.7C445.7,203,480,245,514,245.3C548.6,245,583,203,617,170.7C651.4,139,686,117,720,96C754.3,75,789,53,823,42.7C857.1,32,891,32,926,32C960,32,994,32,1029,69.3C1062.9,107,1097,181,1131,186.7C1165.7,192,1200,128,1234,117.3C1268.6,107,1303,149,1337,181.3C1371.4,213,1406,235,1423,245.3L1440,256L1440,0L1422.9,0C1405.7,0,1371,0,1337,0C1302.9,0,1269,0,1234,0C1200,0,1166,0,1131,0C1097.1,0,1063,0,1029,0C994.3,0,960,0,926,0C891.4,0,857,0,823,0C788.6,0,754,0,720,0C685.7,0,651,0,617,0C582.9,0,549,0,514,0C480,0,446,0,411,0C377.1,0,343,0,309,0C274.3,0,240,0,206,0C171.4,0,137,0,103,0C68.6,0,34,0,17,0L0,0Z"></path></svg>